# xmcd
#
# Track frame offsets:
#	150
#	15669
#	32336
#	45097
#	64942
#	79060
#	90841
#	105965
#	122942
#	150109
#	164504
#	191947
#	212290
#
# Disc length: 3181 seconds
#
# Revision: 1
# Processed by: cddbd v1.4PL0 Copyright (c) Steve Scherf et al.
# Submitted via: EasyCDDAExtractor 6.2.0.3
#
DISCID=8c0c6b0d
DTITLE=Lovett, Lyle - Soundstage Live
DYEAR=2003
DGENRE=Country
TTITLE0=Straighten Up and Fly Right
TTITLE1=Smile
TTITLE2=Summer Wind
TTITLE3=Walking Tall
TTITLE4=You've Got A Friend In Me- with Randy Newman
TTITLE5=Let's Drop The Big One- Randy Newman Solo
TTITLE6=I Think It's Gonna Rain Today- Randy Newman Solo
TTITLE7=If I Had A Boat
TTITLE8=That's Right (You're Not From Texas)
TTITLE9=What Do You Do
TTITLE10=Church
TTITLE11=What'd I Say
TTITLE12=Gospel Song
EXTD=
EXTT0=
EXTT1=
EXTT2=
EXTT3=
EXTT4=
EXTT5=
EXTT6=
EXTT7=
EXTT8=
EXTT9=
EXTT10=
EXTT11=
EXTT12=
PLAYORDER=
